<svg width="512" height="512" viewBox="0 0 512 512" fill="none" xmlns="http://www.w3.org/2000/svg">
<path d="M512 256C512 114.615 397.385 0 256 0C114.615 0 0 114.615 0 256C0 397.385 114.615 512 256 512C397.385 512 512 397.385 512 256Z" fill="white"/>
<path d="M150.778 291.922H110.852L103.879 314.5H72.751L117.077 193.641H144.47L189.128 314.5H157.834L150.778 291.922ZM117.824 269.427H143.806L130.773 227.508L117.824 269.427ZM229.055 314.5H200.002V193.641H229.055V314.5Z" fill="#57648F"/>
<path d="M325.427 266.355H278.444V314.5H249.309V193.641H330.158V216.136H278.444V243.943H325.427V266.355ZM370.5 314.5H342.443V224.686H370.5V314.5ZM340.783 201.526C340.783 197.542 342.222 194.277 345.1 191.731C347.977 189.186 351.713 187.913 356.306 187.913C360.899 187.913 364.634 189.186 367.512 191.731C370.389 194.277 371.828 197.542 371.828 201.526C371.828 205.511 370.389 208.776 367.512 211.321C364.634 213.867 360.899 215.14 356.306 215.14C351.713 215.14 347.977 213.867 345.1 211.321C342.222 208.776 340.783 205.511 340.783 201.526ZM420.388 202.356V224.686H435.163V244.109H420.388V285.198C420.388 288.574 420.996 290.926 422.214 292.254C423.431 293.582 425.839 294.246 429.436 294.246C432.202 294.246 434.527 294.08 436.408 293.748V313.753C431.372 315.358 426.115 316.16 420.637 316.16C411.008 316.16 403.897 313.891 399.304 309.354C394.711 304.816 392.414 297.926 392.414 288.685V244.109H380.959V224.686H392.414V202.356H420.388Z" fill="#9A9EAB"/>
</svg>
